<?xml version="1.0" encoding="UTF-8" standalone="no"?>
<svg
   xmlns:dc="http://purl.org/dc/elements/1.1/"
   xmlns:cc="http://creativecommons.org/ns#"
   xmlns:rdf="http://www.w3.org/1999/02/22-rdf-syntax-ns#"
   xmlns:svg="http://www.w3.org/2000/svg"
   xmlns="http://www.w3.org/2000/svg"
   xmlns:xlink="http://www.w3.org/1999/xlink"
   viewBox="0 0 100 100"
   height="100"
   width="100"
   version="1.1"
   id="svg2">
  <metadata
     id="metadata8">
    <rdf:RDF>
      <cc:Work
         rdf:about="">
        <dc:format>image/svg+xml</dc:format>
        <dc:type
           rdf:resource="http://purl.org/dc/dcmitype/StillImage" />
        <dc:title></dc:title>
      </cc:Work>
    </rdf:RDF>
  </metadata>
  <defs
     id="defs6">
    <linearGradient
       id="linearGradient4461">
      <stop
         id="stop4463"
         offset="0"
         style="stop-color:#ffda20;stop-opacity:1;" />
      <stop
         id="stop4465"
         offset="1"
         style="stop-color:#ffdc30;stop-opacity:1" />
    </linearGradient>
    <linearGradient
       id="linearGradient4453">
      <stop
         id="stop4455"
         offset="0"
         style="stop-color:#ffe25c;stop-opacity:1;" />
      <stop
         id="stop4457"
         offset="1"
         style="stop-color:#ffd92b;stop-opacity:1" />
    </linearGradient>
    <linearGradient
       id="linearGradient4445">
      <stop
         id="stop4447"
         offset="0"
         style="stop-color:#ffdd3c;stop-opacity:1" />
      <stop
         id="stop4449"
         offset="1"
         style="stop-color:#f5cb00;stop-opacity:1" />
    </linearGradient>
    <linearGradient
       id="linearGradient4435">
      <stop
         id="stop4437"
         offset="0"
         style="stop-color:#1eff2b;stop-opacity:0.35294119" />
      <stop
         id="stop4439"
         offset="1"
         style="stop-color:#1eff2b;stop-opacity:0;" />
    </linearGradient>
    <linearGradient
       id="linearGradient4427">
      <stop
         id="stop4429"
         offset="0"
         style="stop-color:#fffbbb;stop-opacity:0.96078432" />
      <stop
         id="stop4431"
         offset="1"
         style="stop-color:#ffeb08;stop-opacity:0.72058821" />
    </linearGradient>
    <linearGradient
       id="linearGradient4149">
      <stop
         id="stop4151"
         offset="0"
         style="stop-color:#2276d3;stop-opacity:1" />
      <stop
         id="stop4153"
         offset="1"
         style="stop-color:#134fa9;stop-opacity:1" />
    </linearGradient>
    <linearGradient
       gradientTransform="matrix(0.93806027,0,0,0.93806027,-123.94224,111.75403)"
       gradientUnits="userSpaceOnUse"
       y2="74.338684"
       x2="306.88123"
       y1="5.9192252"
       x1="411.99011"
       id="linearGradient4155"
       xlink:href="#linearGradient4149" />
    <radialGradient
       gradientTransform="matrix(0.98717606,0.15963526,-0.15963526,0.98717606,22.437779,-11.749489)"
       gradientUnits="userSpaceOnUse"
       r="8.4834334"
       fy="50.78271"
       fx="65.750854"
       cy="50.78271"
       cx="65.750854"
       id="radialGradient4433"
       xlink:href="#linearGradient4427" />
    <linearGradient
       gradientUnits="userSpaceOnUse"
       y2="174.11211"
       x2="253.31113"
       y1="151.79961"
       x1="224.3022"
       id="linearGradient4441"
       xlink:href="#linearGradient4435" />
    <radialGradient
       gradientUnits="userSpaceOnUse"
       r="8.2987341"
       fy="96.194756"
       fx="213.17371"
       cy="96.194756"
       cx="213.17371"
       id="radialGradient4451"
       xlink:href="#linearGradient4445" />
    <radialGradient
       gradientUnits="userSpaceOnUse"
       r="5.4016193"
       fy="87.471733"
       fx="226.70154"
       cy="87.471733"
       cx="226.70154"
       id="radialGradient4459"
       xlink:href="#linearGradient4453" />
    <radialGradient
       gradientUnits="userSpaceOnUse"
       r="5.5915941"
       fy="87.959114"
       fx="199.95007"
       cy="87.959114"
       cx="199.95007"
       id="radialGradient4467"
       xlink:href="#linearGradient4461" />
  </defs>
  <g
     transform="translate(-163.34375,-82.07031)"
     id="layer3">
    <path
       id="path4169"
       d="m 203.77152,149.02261 0,15.40201 -7.37931,-3.7e-4 c 0,0 2.8155,3.43189 -2.15754,3.43189 -4.97303,0 -1.83139,-3.4315 -1.83139,-3.4315 l -7.61897,3.7e-4 -2e-5,-6.86204 c 0,0 3.06488,3.80398 3.77259,-1.53391 0.58798,-4.43487 -3.77259,-2.07284 -3.77259,-2.07284 l 0,-4.93368 z"
       style="fill:#12c0ff;fill-opacity:1;fill-rule:evenodd;stroke:#000000;stroke-width:0.6566422;stroke-linecap:butt;stroke-linejoin:miter;stroke-miterlimit:4;stroke-dasharray:none;stroke-opacity:1" />
  </g>
  <g
     transform="translate(-163.34375,-82.07031)"
     id="layer2">
    <path
       id="path4142"
       d="m 181.5961,116.82694 c -7.69914,-2e-5 -16.66509,5.69206 -16.66509,18.24293 0,6.52546 3.43589,11.28183 8.6129,13.69922 -7.37593,4.2585 -9.73072,8.56276 -9.73072,15.46687 0,6.90412 5.64883,17.36491 17.36491,17.36491 l 29.87532,0 0,-64.77393 z m 34.03798,0 0,64.77393 29.87532,0 c 11.71608,0 17.36491,-10.46079 17.36491,-17.36491 0,-6.90411 -2.35479,-11.20837 -9.73072,-15.46687 5.17701,-2.41739 8.6129,-7.17376 8.6129,-13.69922 0,-12.55087 -8.96596,-18.24295 -16.66509,-18.24293 z m -31.40173,10.7971 6.74776,0 3.21921,-1.85616 5.4731,1.85616 0,15.56394 -3.22624,2.16551 -3.6571,0.0884 -2.26499,-2.2539 -7.55734,0 c -10.34666,-3.72606 -5.57837,-15.5933 1.2656,-15.56394 z m 42.78346,0 15.43934,0 c 6.84397,-0.0294 11.61226,11.83788 1.2656,15.56394 l -16.70494,0 z m -43.66293,27.08622 16.31954,0 0,16.67813 -17.58515,0 c -10.34666,-3.72606 -5.57837,-16.7075 1.26561,-16.67813 z m 43.66293,0 16.31881,0 c 6.84398,-0.0294 11.61227,12.95207 1.2656,16.67813 l -17.58441,0 z"
       style="fill:url(#linearGradient4155);fill-opacity:1;fill-rule:evenodd;stroke:none;stroke-width:1px;stroke-linecap:butt;stroke-linejoin:miter;stroke-opacity:1" />
    <path
       id="path4175"
       d="m 181.59562,116.35822 c -3.96516,-1e-5 -8.24094,1.46228 -11.53888,4.5419 -3.29793,3.07962 -5.59537,7.78271 -5.59537,14.16984 0,6.39476 3.31038,11.13475 8.24283,13.71546 -3.34321,2.02033 -5.72696,4.08483 -7.19119,6.48032 -1.56464,2.55976 -2.16926,5.46482 -2.16926,8.9702 0,3.57998 1.44628,8.00215 4.39716,11.57002 2.95087,3.56786 7.43934,6.26412 13.43698,6.26412 l 30.34404,0 0,-65.71186 z m 0,0.93806 28.98826,0 0,63.83573 -29.40599,0 c -5.71845,0 -9.91063,-2.53467 -12.71329,-5.92333 -2.80265,-3.38866 -4.18279,-7.64861 -4.18279,-10.97274 0,-3.39874 0.57338,-6.09794 2.03002,-8.48102 1.45665,-2.38308 3.81859,-4.47341 7.46601,-6.57925 l 0.7805,-0.45071 -0.81531,-0.38108 c -5.03541,-2.35128 -8.34361,-6.91311 -8.34361,-13.27392 0,-6.16375 2.18686,-10.5806 5.29674,-13.48462 3.10989,-2.90402 7.16547,-4.28907 10.89946,-4.28906 z m 2.63646,9.85879 c -3.69271,-0.0148 -6.74116,3.12266 -7.53746,6.74231 -0.39822,1.81013 -0.23001,3.76416 0.73103,5.50927 0.96103,1.74512 2.7107,3.26081 5.38285,4.22311 l 0.0769,0.0275 7.23061,0 0.90841,1.11591 1.61553,1.1159 2.10043,0.2762 1.87946,-0.43088 1.79108,-1.1822 0.70833,-0.89493 1.02133,0 0,-16.50195 -1.66261,0 -1.0461,-1.01242 -1.76048,-0.7262 -1.90915,-0.0138 -1.71675,0.66022 -1.29078,1.09191 -6.52085,0 -0.002,0 z m -0.002,0.93806 0.002,0 6.93486,0 1.39054,-1.18723 1.41974,-0.57407 1.57521,0.0267 1.30911,0.54295 1.23413,1.19181 1.10708,0 -1.8e-4,14.62591 -0.69544,0 -0.81468,1.1159 -1.52178,1.02751 -1.47759,0.25412 -1.67647,-0.23201 -1.2316,-0.91703 -0.96644,-1.24849 -7.74441,0 c -2.46431,-0.90088 -3.99194,-2.25076 -4.82588,-3.76507 -0.84095,-1.52706 -0.99371,-3.23638 -0.63759,-4.85519 0.71226,-3.23763 3.46913,-6.0193 6.61956,-6.00579 z m 14.97231,36.65943 0,6.16706 -17.006,0 c -2.45858,-0.89939 -3.98409,-2.30907 -4.82222,-3.92813 -0.84496,-1.63227 -1.0003,-3.49178 -0.64125,-5.25644 0.7181,-3.52931 3.49274,-6.56883 6.61773,-6.55542 l -5e-5,0 0.002,0 4.92784,0 0.62055,-0.46903 c -0.0584,-0.3016 -0.22808,-0.46903 -0.62055,-0.46903 l -4.92604,0 -0.002,0 8e-5,-1e-5 c -3.71815,-0.0148 -6.74885,3.42172 -7.5393,7.30661 -0.39528,1.94278 -0.22966,4.02511 0.72737,5.87387 0.95703,1.84877 2.70919,3.44333 5.38835,4.40816 l 0.0769,0.0275 18.13461,0 0,-7.10512 c 0.006,-0.58378 -0.29465,-0.65664 -0.46902,-0.65664 z"
       style="color:#000000;font-style:normal;font-variant:normal;font-weight:normal;font-stretch:normal;font-size:medium;line-height:normal;font-family:sans-serif;text-indent:0;text-align:start;text-decoration:none;text-decoration-line:none;text-decoration-style:solid;text-decoration-color:#000000;letter-spacing:normal;word-spacing:normal;text-transform:none;direction:ltr;block-progression:tb;writing-mode:lr-tb;baseline-shift:baseline;text-anchor:start;white-space:normal;clip-rule:nonzero;display:inline;overflow:visible;visibility:visible;opacity:1;isolation:auto;mix-blend-mode:normal;color-interpolation:sRGB;color-interpolation-filters:linearRGB;solid-color:#000000;solid-opacity:1;fill:#000000;fill-opacity:1;fill-rule:evenodd;stroke:none;stroke-width:1px;stroke-linecap:butt;stroke-linejoin:miter;stroke-miterlimit:4;stroke-dasharray:none;stroke-dashoffset:0;stroke-opacity:1;color-rendering:auto;image-rendering:auto;shape-rendering:auto;text-rendering:auto;enable-background:accumulate" />
    <path
       id="path4200"
       d="m 215.16536,116.35822 0,65.71209 30.34404,0 c 5.99764,0 10.48682,-2.69567 13.4377,-6.26354 2.95088,-3.56786 4.39665,-7.99083 4.39665,-11.57081 0,-3.50538 -0.60362,-6.41029 -2.16826,-8.97006 -1.46016,-2.38882 -3.78236,-4.45355 -7.11041,-6.46855 4.90468,-2.58693 8.16085,-7.35417 8.16085,-13.72748 0,-6.38712 -2.29621,-11.09122 -5.59415,-14.17084 -3.29794,-3.07962 -7.57523,-4.54082 -11.54038,-4.54081 z m 0.93816,0.93815 28.98788,0 c 3.73398,0 7.79008,1.38469 10.89997,4.28871 3.10989,2.90402 5.29641,7.32104 5.29641,13.48479 0,6.36082 -3.30728,10.9227 -8.34269,13.27398 l -0.81573,0.38105 0.78023,0.44988 c 3.64742,2.10584 6.00874,4.19704 7.46539,6.58012 1.45665,2.38308 2.03061,5.08232 2.03061,8.48106 0,3.32414 -1.37882,7.58376 -4.18148,10.97242 -2.80266,3.38866 -6.99626,5.92378 -12.71471,5.92378 l -29.40588,0 z m 10.44285,9.85896 0,16.50209 17.25624,0 0.0775,-0.0283 c 2.67214,-0.9623 4.42013,-2.47767 5.38116,-4.22278 0.96104,-1.74512 1.1299,-3.69927 0.73169,-5.50939 -0.79627,-3.61954 -3.84528,-6.75626 -7.53783,-6.74167 l -15.90878,0 z m 0.93815,0.93815 14.97135,0 0.001,0 c 3.15043,-0.0135 5.90699,2.76729 6.61924,6.00491 0.35613,1.61881 0.20417,3.32888 -0.63678,4.85595 -0.83334,1.51321 -2.35492,2.86404 -4.8161,3.76493 l -16.13915,0 0,-14.62579 z"
       style="color:#000000;font-style:normal;font-variant:normal;font-weight:normal;font-stretch:normal;font-size:medium;line-height:normal;font-family:sans-serif;text-indent:0;text-align:start;text-decoration:none;text-decoration-line:none;text-decoration-style:solid;text-decoration-color:#000000;letter-spacing:normal;word-spacing:normal;text-transform:none;direction:ltr;block-progression:tb;writing-mode:lr-tb;baseline-shift:baseline;text-anchor:start;white-space:normal;clip-rule:nonzero;display:inline;overflow:visible;visibility:visible;opacity:1;isolation:auto;mix-blend-mode:normal;color-interpolation:sRGB;color-interpolation-filters:linearRGB;solid-color:#000000;solid-opacity:1;fill:#000000;fill-opacity:1;fill-rule:evenodd;stroke:none;stroke-width:2.52904344px;stroke-linecap:butt;stroke-linejoin:miter;stroke-miterlimit:4;stroke-dasharray:none;stroke-dashoffset:0;stroke-opacity:1;color-rendering:auto;image-rendering:auto;shape-rendering:auto;text-rendering:auto;enable-background:accumulate" />
    <path
       style="color:#000000;font-style:normal;font-variant:normal;font-weight:normal;font-stretch:normal;font-size:medium;line-height:normal;font-family:sans-serif;text-indent:0;text-align:start;text-decoration:none;text-decoration-line:none;text-decoration-style:solid;text-decoration-color:#000000;letter-spacing:normal;word-spacing:normal;text-transform:none;direction:ltr;block-progression:tb;writing-mode:lr-tb;baseline-shift:baseline;text-anchor:start;white-space:normal;clip-rule:nonzero;display:inline;overflow:visible;visibility:visible;opacity:1;isolation:auto;mix-blend-mode:normal;color-interpolation:sRGB;color-interpolation-filters:linearRGB;solid-color:#000000;solid-opacity:1;fill:url(#linearGradient4441);fill-opacity:1;fill-rule:evenodd;stroke:#772b2b;stroke-width:2.78121948;stroke-linecap:butt;stroke-linejoin:miter;stroke-miterlimit:4;stroke-dasharray:5.56243904, 2.78121951000000012, 1.39060976000000003, 2.78121951000000012;stroke-dashoffset:0;stroke-opacity:1;color-rendering:auto;image-rendering:auto;shape-rendering:auto;text-rendering:auto;enable-background:accumulate"
       d="m 225.63031,153.29821 0,19.50297 19.53153,0 0.0835,-0.0314 c 2.88535,-1.06816 4.77088,-2.83279 5.80156,-4.87955 1.03069,-2.04678 1.20904,-4.35285 0.78332,-6.50367 -0.85125,-4.30084 -4.11539,-8.10463 -8.11952,-8.08849 l -18.08036,0 z"
       id="path4401" />
  </g>
  <g
     id="layer6">
    <path
       id="rect4409"
       d="m 78.396891,40.612683 -1.570457,1.924489 -2.449138,-0.396048 -0.396048,2.449139 -2.321375,0.883862 0.881273,2.320955 -1.567867,1.924908 1.924489,1.570457 -0.396048,2.449138 2.449139,0.396048 0.883862,2.321375 2.320956,-0.881273 1.924907,1.567867 1.570457,-1.924489 2.449138,0.396048 0.396048,-2.449139 2.321375,-0.883862 -0.881272,-2.320956 1.567866,-1.924907 -1.924489,-1.570457 0.396048,-2.449138 -2.449139,-0.396048 -0.883862,-2.321375 -2.320955,0.881272 z"
       style="opacity:1;fill:url(#radialGradient4433);fill-opacity:1;fill-rule:nonzero;stroke:#b10000;stroke-width:0.8;stroke-linecap:butt;stroke-linejoin:miter;stroke-miterlimit:4;stroke-dasharray:none;stroke-dashoffset:0;stroke-opacity:0.55392158" />
    <circle
       r="2.8422911"
       cy="48.760647"
       cx="79.241074"
       id="path6009"
       style="opacity:1;fill:#9b0000;fill-opacity:1;fill-rule:nonzero;stroke:#000000;stroke-width:0.80000001;stroke-linecap:butt;stroke-linejoin:miter;stroke-miterlimit:4;stroke-dasharray:none;stroke-dashoffset:0;stroke-opacity:0.59803921" />
    <path
       id="path6011"
       d="m 77.773458,49.573376 c 0,0 -2.144482,4.90419 -5.996509,8.632337 -1.57636,1.525666 1.994726,-0.06586 2.033259,0.118119 0.24331,1.16175 -0.435279,4.792995 0.531426,3.56601 2.467959,-3.132443 5.180993,-11.962785 5.180993,-11.962785 z"
       style="fill:#9b0000;fill-opacity:1;fill-rule:evenodd;stroke:none;stroke-width:1px;stroke-linecap:butt;stroke-linejoin:miter;stroke-opacity:0.59803922" />
  </g>
  <g
     transform="translate(-163.34375,-82.07031)"
     id="layer5">
    <path
       id="path4287"
       d="m 244.76453,161.96691 0.45738,-1.51851 0.47568,1.51851 1.5917,0.47568 -1.55511,0.47568 -0.47568,1.55511 -0.49397,-1.53681 -1.53681,-0.45739 z"
       style="fill:#0d00f5;fill-opacity:1;fill-rule:evenodd;stroke:none;stroke-width:1px;stroke-linecap:butt;stroke-linejoin:miter;stroke-opacity:1" />
    <path
       style="fill:#00760d;fill-opacity:1;fill-rule:evenodd;stroke:none;stroke-width:1px;stroke-linecap:butt;stroke-linejoin:miter;stroke-opacity:1"
       d="m 242.49881,166.12666 0.30152,-1.00105 0.31358,1.00105 1.04929,0.31358 -1.02517,0.31358 -0.31358,1.02516 -0.32564,-1.0131 -1.0131,-0.30152 z"
       id="path4289" />
    <path
       id="path4291"
       d="m 233.48786,160.34245 0.33557,-1.1141 0.349,1.1141 1.1678,0.34901 -1.14097,0.34899 -0.34899,1.14096 -0.36241,-1.12754 -1.12754,-0.33557 z"
       style="fill:#232323;fill-opacity:1;fill-rule:evenodd;stroke:none;stroke-width:1px;stroke-linecap:butt;stroke-linejoin:miter;stroke-opacity:1" />
    <path
       style="fill:#e6d600;fill-opacity:1;fill-rule:evenodd;stroke:none;stroke-width:1px;stroke-linecap:butt;stroke-linejoin:miter;stroke-opacity:1"
       d="m 232.60687,154.91988 0.40922,-1.35857 0.42556,1.35857 1.42405,0.42556 -1.39131,0.42558 -0.42557,1.39129 -0.44195,-1.37492 -1.37493,-0.40921 z"
       id="path4293" />
    <path
       id="rect4282"
       d="m 240.14909,158.72084 c -0.20465,0 -0.40936,0.0784 -0.56618,0.23518 l -10.05308,10.05308 c -0.31364,0.31364 -0.31364,0.81863 0,1.13227 l 1.34027,1.34027 c 0.31364,0.31364 0.81863,0.31364 1.13227,0 l 10.05308,-10.05307 c 0.31364,-0.31365 0.31364,-0.81864 0,-1.13228 l -1.34027,-1.34027 c -0.15682,-0.15682 -0.36143,-0.23518 -0.56609,-0.23518 z m 0.0319,1.20858 0.88283,0.88283 -2.39633,2.39623 -0.88284,-0.88283 2.39634,-2.39623 z"
       style="opacity:1;fill:#521c1c;fill-opacity:1;fill-rule:nonzero;stroke:none;stroke-width:0.69999999;stroke-linecap:butt;stroke-linejoin:miter;stroke-miterlimit:4;stroke-dasharray:none;stroke-dashoffset:0;stroke-opacity:1" />
    <path
       id="path4443"
       d="m 237.49925,157.72053 0.39192,-1.30118 0.40759,1.30118 1.36388,0.40759 -1.33253,0.40759 -0.40759,1.33251 -0.42327,-1.31683 -1.31683,-0.39192 z"
       style="fill:#ff5f5f;fill-opacity:1;fill-rule:evenodd;stroke:none;stroke-width:1px;stroke-linecap:butt;stroke-linejoin:miter;stroke-opacity:1" />
  </g>
  <g
     id="layer7">
    <path
       id="path4377"
       d="m 23.16642,47.55961 c -0.09491,-0.04377 -0.245846,-0.0054 -0.302538,0.08237 l -0.827575,1.281712 a 4.6498349,4.6498349 0 0 0 -0.816789,-0.03341 l -0.768594,-1.342617 c -0.07161,-0.12509 -0.202233,-0.123625 -0.282534,-0.09402 l -1.74501,0.643583 c -0.09806,0.03616 -0.177621,0.169955 -0.155624,0.272128 l 0.317755,1.476223 a 4.6498349,4.6498349 0 0 0 -0.574013,0.527104 l -1.542475,-0.419382 c -0.139088,-0.03781 -0.230413,0.05551 -0.266256,0.133239 l -0.778839,1.689015 c -0.04377,0.09491 -0.0054,0.245842 0.08238,0.302541 l 1.300406,0.839657 a 4.6498349,4.6498349 0 0 0 -0.03165,0.838407 l -1.361991,0.779661 c -0.125082,0.07161 -0.123615,0.202236 -0.09402,0.282537 l 0.643584,1.745007 c 0.03616,0.09805 0.169956,0.177621 0.272129,0.155624 l 1.516956,-0.326579 a 4.6498349,4.6498349 0 0 0 0.537437,0.57358 l -0.414811,1.525916 c -0.03781,0.139088 0.05551,0.230414 0.133245,0.266258 l 1.68901,0.778836 c 0.09491,0.04377 0.245847,0.0054 0.30254,-0.08238 l 0.845958,-1.310305 a 4.6498349,4.6498349 0 0 0 0.742472,0.02888 l 0.770708,1.346129 c 0.07161,0.125092 0.202125,0.123575 0.282422,0.09398 l 1.745117,-0.643529 c 0.09805,-0.03616 0.177673,-0.170068 0.155676,-0.272241 l -0.315641,-1.46578 a 4.6498349,4.6498349 0 0 0 0.623035,-0.572105 l 1.465475,0.398407 c 0.139089,0.03781 0.230413,-0.05551 0.266257,-0.13324 l 0.778838,-1.689015 c 0.04377,-0.09491 0.0054,-0.245846 -0.08238,-0.302537 l -1.250461,-0.807436 a 4.6498349,4.6498349 0 0 0 0.03029,-0.799028 l 1.371993,-0.785449 c 0.125093,-0.07161 0.123684,-0.202074 0.09409,-0.282371 l -0.643638,-1.745173 c -0.03616,-0.09805 -0.169957,-0.177621 -0.272129,-0.155624 l -1.517283,0.326696 a 4.6498349,4.6498349 0 0 0 -0.515204,-0.557595 l 0.413941,-1.522587 c 0.03781,-0.139089 -0.05551,-0.230411 -0.133245,-0.266254 L 23.166422,47.55961 Z m -0.712179,3.719897 a 2.479912,2.479912 0 0 1 1.213564,3.290469 2.479912,2.479912 0 0 1 -3.290466,1.213566 2.479912,2.479912 0 0 1 -1.21357,-3.290467 2.479912,2.479912 0 0 1 3.290472,-1.213568 z"
       style="fill:#005d28;fill-opacity:1;fill-rule:evenodd;stroke:none;stroke-width:1px;stroke-linecap:butt;stroke-linejoin:miter;stroke-opacity:1" />
    <path
       style="fill:#005d28;fill-opacity:1;fill-rule:evenodd;stroke:none;stroke-width:1px;stroke-linecap:butt;stroke-linejoin:miter;stroke-opacity:1"
       d="m 29.496977,55.083025 c -0.06338,0.02202 -0.116109,0.106943 -0.103235,0.172787 l 0.187913,0.961167 a 2.9848438,2.9848438 0 0 0 -0.392595,0.348188 l -0.953179,-0.278712 c -0.08881,-0.02596 -0.14856,0.03287 -0.172511,0.08232 l -0.520451,1.074512 c -0.02925,0.06038 -0.0065,0.157674 0.04918,0.19513 l 0.80417,0.54121 a 2.9848438,2.9848438 0 0 0 -0.03078,0.499312 l -0.900025,0.492781 c -0.08115,0.04444 -0.08184,0.128247 -0.06381,0.180157 l 0.391785,1.127824 c 0.02201,0.06338 0.106942,0.116108 0.172786,0.103234 l 0.975192,-0.19065 a 2.9848438,2.9848438 0 0 0 0.358629,0.401809 l -0.282739,0.966921 c -0.02597,0.08881 0.03287,0.148559 0.08232,0.172515 l 1.074512,0.52045 c 0.06038,0.02925 0.157671,0.0065 0.19513,-0.04918 l 0.556122,-0.826386 a 2.9848438,2.9848438 0 0 0 0.503898,0.02598 l 0.487517,0.890333 c 0.04444,0.08115 0.128258,0.08184 0.180162,0.06381 l 1.127823,-0.391785 c 0.06338,-0.02201 0.11611,-0.106942 0.103236,-0.172787 l -0.192144,-0.982576 a 2.9848438,2.9848438 0 0 0 0.356214,-0.317197 l 0.955717,0.279394 c 0.08881,0.02597 0.148486,-0.03284 0.172439,-0.0823 l 0.520524,-1.074536 c 0.02925,-0.06038 0.0064,-0.157745 -0.04921,-0.195209 l -0.798541,-0.537322 a 2.9848438,2.9848438 0 0 0 0.03342,-0.541946 l 0.85508,-0.468196 c 0.08115,-0.04444 0.08184,-0.128247 0.06381,-0.180157 l -0.391789,-1.12783 c -0.02202,-0.06338 -0.106943,-0.116108 -0.172787,-0.103235 l -0.937743,0.183328 a 2.9848438,2.9848438 0 0 0 -0.341724,-0.382994 l 0.284794,-0.974049 c 0.02596,-0.08881 -0.03277,-0.148515 -0.08222,-0.172467 l -1.074606,-0.520501 c -0.06039,-0.02924 -0.157679,-0.0065 -0.195135,0.04919 l -0.556216,0.826579 a 2.9848438,2.9848438 0 0 0 -0.486506,-0.02849 l -0.486439,-0.888404 c -0.04444,-0.08115 -0.128248,-0.08184 -0.180157,-0.06381 l -1.127823,0.391784 z m 1.326774,2.037331 a 1.5919167,1.5919167 0 0 1 2.026147,0.981386 1.5919167,1.5919167 0 0 1 -0.981384,2.026152 1.5919167,1.5919167 0 0 1 -2.026149,-0.98139 1.5919167,1.5919167 0 0 1 0.981386,-2.026148 z"
       id="path4394" />
    <path
       id="path4396"
       d="m 33.041473,45.176691 c -0.05547,-0.03774 -0.155091,-0.02941 -0.200262,0.0202 l -0.659402,0.724115 A 2.9848438,2.9848438 0 0 0 31.66817,45.813555 l -0.34481,-0.931309 c -0.03213,-0.08676 -0.114989,-0.09964 -0.168965,-0.08937 l -1.172883,0.223149 c -0.06591,0.01254 -0.130422,0.08884 -0.127286,0.155862 l 0.04524,0.968272 a 2.9848438,2.9848438 0 0 0 -0.419135,0.273105 l -0.932345,-0.428497 c -0.08408,-0.03863 -0.15176,0.01081 -0.182664,0.05624 l -0.671577,0.987156 c -0.03774,0.05547 -0.02941,0.155087 0.0202,0.200259 l 0.734676,0.669035 a 2.9848438,2.9848438 0 0 0 -0.108614,0.527508 l -0.944742,0.349774 c -0.08677,0.03213 -0.09964,0.11499 -0.08936,0.168971 l 0.223145,1.17288 c 0.01254,0.06591 0.08884,0.130423 0.155863,0.127287 l 0.994998,-0.04652 a 2.9848438,2.9848438 0 0 0 0.27969,0.419953 l -0.423848,0.922346 c -0.03863,0.08407 0.0108,0.151753 0.05624,0.182663 l 0.987153,0.671575 c 0.05547,0.03774 0.15509,0.02941 0.200261,-0.0202 l 0.674066,-0.740278 a 2.9848438,2.9848438 0 0 0 0.467063,0.09673 l 0.345774,0.933753 c 0.03213,0.08676 0.114926,0.09959 0.168905,0.08933 l 1.172945,-0.2231 c 0.06591,-0.01254 0.130458,-0.08891 0.127331,-0.155928 l -0.045,-0.961435 a 2.9848438,2.9848438 0 0 0 0.454927,-0.296417 l 0.885808,0.40708 c 0.08407,0.03863 0.151754,-0.0108 0.182664,-0.05623 l 0.671576,-0.987156 c 0.03774,-0.05547 0.02941,-0.155087 -0.0202,-0.200258 l -0.706454,-0.64335 a 2.9848438,2.9848438 0 0 0 0.103589,-0.502723 l 0.951691,-0.352378 c 0.08676,-0.03213 0.09966,-0.114881 0.08939,-0.168856 l -0.223166,-1.17299 c -0.01254,-0.06591 -0.08884,-0.130422 -0.155867,-0.127289 l -0.995211,0.04656 a 2.9848438,2.9848438 0 0 0 -0.267307,-0.407485 l 0.422948,-0.920326 c 0.03863,-0.08408 -0.0108,-0.151754 -0.05623,-0.182664 L 33.041496,45.17671 Z m -0.843924,2.280097 a 1.5919167,1.5919167 0 0 1 0.420771,2.211637 1.5919167,1.5919167 0 0 1 -2.211638,0.420772 1.5919167,1.5919167 0 0 1 -0.420771,-2.211639 1.5919167,1.5919167 0 0 1 2.211638,-0.42077 z"
       style="fill:#005d28;fill-opacity:1;fill-rule:evenodd;stroke:none;stroke-width:1px;stroke-linecap:butt;stroke-linejoin:miter;stroke-opacity:1" />
  </g>
  <g
     transform="translate(-163.34375,-82.07031)"
     id="layer4">
    <circle
       r="8.1689138"
       cy="96.194756"
       cx="213.17371"
       id="path4217"
       style="opacity:1;fill:url(#radialGradient4451);fill-opacity:1;fill-rule:nonzero;stroke:#000000;stroke-width:0.25964051;stroke-linecap:butt;stroke-linejoin:miter;stroke-miterlimit:4;stroke-dasharray:none;stroke-dashoffset:0;stroke-opacity:1" />
    <circle
       r="5.2717991"
       cy="87.471733"
       cx="226.70154"
       id="path4219"
       style="opacity:1;fill:url(#radialGradient4459);fill-opacity:1;fill-rule:nonzero;stroke:#000000;stroke-width:0.25964051;stroke-linecap:butt;stroke-linejoin:miter;stroke-miterlimit:4;stroke-dasharray:none;stroke-dashoffset:0;stroke-opacity:1" />
    <circle
       r="5.4617739"
       cy="87.959114"
       cx="199.95007"
       id="path4221"
       style="opacity:1;fill:url(#radialGradient4467);fill-opacity:1;fill-rule:nonzero;stroke:#000000;stroke-width:0.25964051;stroke-linecap:butt;stroke-linejoin:miter;stroke-miterlimit:4;stroke-dasharray:none;stroke-dashoffset:0;stroke-opacity:1" />
    <path
       id="path4223"
       d="m 203.03043,94.799362 c -0.49914,3.91208 0.55732,5.838008 1.32877,6.836778 -2.38327,-0.0377 -3.77959,1.0076 -5.15432,2.60879 l -2.73088,0 c -1.92015,0 -4.03697,-1.01139 -4.03697,-3.3958 0,-6.548598 1.84766,-7.266528 2.56467,-7.266528 3.86466,2.26931 6.37733,1.99482 8.02873,1.21676 z"
       style="fill:#cd2a00;fill-opacity:1;fill-rule:evenodd;stroke:#000000;stroke-width:0.37091503px;stroke-linecap:butt;stroke-linejoin:miter;stroke-opacity:1" />
    <path
       id="path4225"
       d="m 205.90717,103.82091 c 0,0 3.20583,2.9921 7.36153,2.9921 4.1557,0 7.36152,-3.0396 7.36152,-3.0396 7.38173,0.23164 7.44578,9.94704 7.31403,12.7758 -0.10723,2.30219 -2.19631,4.63064 -5.39054,4.63064 l -18.87874,0 c -0.92943,0 -5.08182,-0.82906 -5.08182,-5.36679 0,-4.67949 1.01006,-11.86718 7.31402,-11.99215 z"
       style="fill:#9ac4dd;fill-opacity:1;fill-rule:evenodd;stroke:#000000;stroke-width:0.37091503px;stroke-linecap:butt;stroke-linejoin:miter;stroke-opacity:1" />
    <path
       style="fill:#36cd00;fill-opacity:1;fill-rule:evenodd;stroke:#000000;stroke-width:0.37091503px;stroke-linecap:butt;stroke-linejoin:miter;stroke-opacity:1"
       d="m 224.00067,94.799362 c 0.49914,3.91208 -0.55732,5.838008 -1.32877,6.836778 2.38327,-0.0377 3.77959,1.0076 5.15432,2.60879 l 2.73088,0 c 1.92015,0 4.03697,-1.01139 4.03697,-3.3958 0,-6.548598 -1.84765,-7.266528 -2.56467,-7.266528 -3.86466,2.26931 -6.37733,1.99482 -8.02873,1.21676 z"
       id="path4326" />
    <g
       id="text4328"
       style="font-style:normal;font-variant:normal;font-weight:normal;font-stretch:normal;font-size:15px;line-height:120.00000477%;font-family:sans-serif;-inkscape-font-specification:'sans-serif, Normal';text-align:center;letter-spacing:0px;word-spacing:0px;writing-mode:lr-tb;text-anchor:middle;fill:#000000;fill-opacity:1;stroke:none;stroke-width:1px;stroke-linecap:butt;stroke-linejoin:miter;stroke-opacity:1">
      <path
         id="path6014"
         style="font-style:normal;font-variant:normal;font-weight:normal;font-stretch:normal;font-size:10px;font-family:'Linux Libertine Mono';-inkscape-font-specification:'Linux Libertine Mono';text-align:center;text-anchor:middle"
         d="m 181.02777,107.54494 q -0.22949,0 -0.43945,0.0537 -0.20996,0.0488 -0.41504,0.23926 -0.20508,0.19043 -0.20508,0.50781 0,0.56152 -0.46875,0.56152 -0.20019,0 -0.30762,-0.1123 -0.10254,-0.11719 -0.10254,-0.24903 0,-0.16113 0.11231,-0.37109 0.11719,-0.20996 0.35644,-0.44922 0.23926,-0.23926 0.70801,-0.40039 0.47364,-0.16113 1.09375,-0.16113 0.87891,0 1.3086,0.40039 0.37109,0.3418 0.37109,0.85937 0,0.45899 -0.27832,0.7959 -0.27344,0.33692 -0.98145,0.63477 l 0.01,0.0195 q 0.66895,0.0977 1.17676,0.51269 0.51269,0.41016 0.51269,1.20118 0,1.03027 -0.79101,1.6455 -0.79102,0.61036 -1.90918,0.61036 -0.59082,0 -1.15723,-0.21485 -0.56152,-0.21484 -0.56152,-0.51269 0,-0.13184 0.15625,-0.24903 0.16113,-0.12207 0.34179,-0.12207 0.29786,0 0.52247,0.28321 0.0293,0.0391 0.0732,0.14648 0.0439,0.10254 0.0879,0.15137 0.0488,0.0488 0.19043,0.0977 0.14648,0.0439 0.39551,0.0439 0.17089,0 0.36132,-0.0391 0.19043,-0.0439 0.42481,-0.15625 0.23437,-0.11719 0.41992,-0.30274 0.18555,-0.18555 0.30762,-0.50293 0.12695,-0.32226 0.12695,-0.73242 0,-0.43945 -0.1416,-0.72754 -0.13672,-0.29297 -0.39063,-0.4248 -0.24902,-0.13672 -0.50293,-0.18555 -0.2539,-0.0488 -0.5957,-0.0488 -0.25879,0 -0.45898,0.0195 l -0.0586,-0.35156 q 0.82032,-0.0977 1.29883,-0.57129 0.47852,-0.47851 0.47852,-0.94726 0,-0.48829 -0.29785,-0.71778 -0.29297,-0.23437 -0.77149,-0.23437 z" />
      <path
         id="path6016"
         style="font-style:normal;font-variant:normal;font-weight:normal;font-stretch:normal;font-size:10px;font-family:'Linux Libertine Mono';-inkscape-font-specification:'Linux Libertine Mono';text-align:center;text-anchor:middle"
         d="m 187.48285,109.68849 q 0,0.35645 0.0488,0.35156 0.0195,0 0.0537,-0.0342 0.59082,-0.62011 1.06933,-0.88867 0.47852,-0.27343 1.3086,-0.27343 0.29785,0 0.43457,0.16113 0.13672,0.16113 0.13672,0.35156 0,0.20996 -0.1416,0.38086 -0.13672,0.1709 -0.32715,0.1709 -0.20996,0 -0.45899,-0.27344 -0.0586,-0.0635 -0.20019,-0.13184 -0.1416,-0.0732 -0.23926,-0.0732 -0.5127,0 -1.44043,1.03516 -0.23926,0.26855 -0.24414,0.63965 l 0,1.38183 q 0,0.38086 0.0439,0.542 0.0488,0.15625 0.18067,0.22949 0.20019,0.0977 1.52832,0.13672 0.0391,0.0488 0.0391,0.19043 0,0.1416 -0.0391,0.18066 -0.85938,-0.0195 -2.06055,-0.0195 -1.23047,0 -2.07031,0.0195 -0.0488,-0.0391 -0.0488,-0.17578 0,-0.1416 0.0488,-0.19531 1.20117,-0.0586 1.31836,-0.13672 0.19043,-0.13184 0.19043,-0.77149 l 0,-2.42187 q 0,-0.43945 -0.15625,-0.53711 -0.0684,-0.0391 -0.46875,-0.0879 -0.39551,-0.0537 -0.5957,-0.0537 -0.0586,-0.1709 -0.0195,-0.27832 0.88868,-0.12207 1.90918,-0.29297 0.0879,0 0.12207,0.083 0.0781,0.16113 0.0781,0.79101 z" />
      <path
         id="path6018"
         style="font-style:normal;font-variant:normal;font-weight:normal;font-stretch:normal;font-size:10px;font-family:'Linux Libertine Mono';-inkscape-font-specification:'Linux Libertine Mono';text-align:center;text-anchor:middle"
         d="m 195.30023,112.36427 0,-2.11914 q 0,-0.25879 -0.0342,-0.35644 -0.0342,-0.10254 -0.15625,-0.24414 -0.16113,-0.18067 -0.49804,-0.28321 -0.33204,-0.10742 -0.66895,-0.10742 -0.83008,0 -1.2207,0.55176 -0.3418,0.42969 -0.3418,1.47949 0,0.96192 0.47852,1.50879 0.48339,0.54199 1.03027,0.54199 0.24902,0 0.5957,-0.1416 0.34668,-0.14648 0.63477,-0.40039 0.18066,-0.16113 0.18066,-0.42969 z m -0.11719,0.82032 q -0.82031,0.66894 -1.60156,0.67382 -0.94238,0 -1.52344,-0.66406 -0.57617,-0.66894 -0.57617,-1.70898 0,-1.21094 0.81055,-1.96778 0.75195,-0.65918 1.76758,-0.65918 0.1709,0 0.44433,0.0439 0.27832,0.0439 0.4834,0.0879 0.20508,0.0439 0.21485,0.0439 0.0976,0 0.0976,-0.0977 l 0,-0.78125 q 0,-0.54199 -0.1416,-0.66895 -0.13672,-0.13183 -0.69824,-0.15136 -0.11231,-0.11231 -0.0586,-0.29786 0.35157,-0.0293 0.92774,-0.1123 0.58105,-0.0879 0.75195,-0.16113 0.13184,0 0.13184,0.10254 -0.0391,0.40039 -0.044,1.0498 l 0,4.53125 q 0,0.39063 0.14649,0.52734 0.14648,0.13184 0.68359,0.2002 0.0391,0.0488 0.0391,0.1416 0.005,0.0879 -0.0391,0.13184 -1.00098,0.0781 -1.38672,0.39551 -0.1123,0.0293 -0.19043,0 -0.1123,-0.38086 -0.1123,-0.64942 0.005,-0.10742 -0.12696,-0.01 z" />
      <path
         id="path6020"
         style="font-style:normal;font-variant:normal;font-weight:normal;font-stretch:normal;font-size:10px;font-family:'Linux Libertine Mono';-inkscape-font-specification:'Linux Libertine Mono';text-align:center;text-anchor:middle"
         d="m 231.52094,110.12794 q -0.24903,0.35157 -0.25391,0.62989 l 0,1.57715 q 0.0586,0.41015 0.4834,0.75195 0.42968,0.33691 0.80078,0.33691 0.75195,0 1.17676,-0.52734 0.42968,-0.53223 0.42968,-1.47949 0,-2.06055 -1.47949,-2.06055 -0.5957,0 -1.15722,0.77148 z m -0.25391,-0.39062 q 0,0.0586 0.0342,0.0635 0.0391,0.005 0.0586,-0.0244 0.36133,-0.45898 0.73731,-0.69336 0.38086,-0.23925 0.92285,-0.23925 1.02051,0 1.55762,0.61035 0.54199,0.61035 0.54199,1.66015 0,1.28907 -0.83985,2.11426 -0.65918,0.62012 -1.66015,0.61524 -0.82031,0 -1.35254,-0.57618 l 0,1.53809 q 0,0.61035 0.16113,0.74219 0.16113,0.13672 0.85938,0.16601 0.0488,0.0488 0.0488,0.19043 0,0.1416 -0.0488,0.18067 -0.85938,-0.0195 -1.4502,-0.0195 -0.41992,0 -1.25976,0.0195 -0.0391,-0.0391 -0.0391,-0.18067 0,-0.13672 0.0391,-0.19043 0.49804,-0.0195 0.65918,-0.1709 0.16113,-0.14648 0.16113,-0.7373 l 0,-4.59961 q 0,-0.45898 -0.16602,-0.58105 -0.16113,-0.12696 -0.65429,-0.18067 -0.0586,-0.20996 -0.0293,-0.30762 1.02051,-0.13183 1.52832,-0.33203 0.0879,0 0.13184,0.0928 0.0586,0.1416 0.0586,0.83984 z" />
      <path
         id="path6022"
         style="font-style:normal;font-variant:normal;font-weight:normal;font-stretch:normal;font-size:10px;font-family:'Linux Libertine Mono';-inkscape-font-specification:'Linux Libertine Mono';text-align:center;text-anchor:middle"
         d="m 239.86566,111.24611 -1.20117,0.22949 q -0.62988,0.12207 -0.97168,0.42969 -0.33691,0.30273 -0.33691,0.72265 0,0.29786 0.22949,0.53223 0.22949,0.23438 0.68847,0.23438 0.25879,0 0.64454,-0.15137 0.38574,-0.15625 0.67871,-0.34668 0.19043,-0.13184 0.20019,-0.3125 l 0.0684,-1.33789 z m -0.0684,1.94824 -0.0342,0 -0.27832,0.19043 q -0.43945,0.27832 -0.74707,0.36621 -0.30273,0.0928 -0.76172,0.0928 -0.74218,0 -1.17675,-0.27833 -0.43457,-0.27832 -0.43457,-0.88867 0,-0.57129 0.5371,-0.98144 0.542,-0.41016 1.58204,-0.59082 l 1.29882,-0.21973 q 0.0977,-0.0293 0.10254,-0.13672 0,-1.49902 -1.08886,-1.5039 -0.42969,0 -0.76661,0.11718 -0.33691,0.11719 -0.33691,0.35645 0,0.16113 0.0244,0.21973 0.0391,0.0781 0.0391,0.20996 0,0.1123 -0.16602,0.21484 -0.16601,0.10254 -0.38574,0.10254 -0.44922,0 -0.44922,-0.39063 0,-0.44921 0.67383,-0.83984 0.67383,-0.39062 1.46484,-0.39062 1.95801,0 1.84082,1.88476 l -0.0684,1.60645 q -0.0391,0.95214 0.61035,0.95214 0.16114,0 0.26368,-0.0879 0.10254,-0.0928 0.12695,-0.0928 0.0488,0 0.10742,0.0684 0.0586,0.0635 0.0586,0.12207 0,0.0684 -0.13184,0.19531 -0.12695,0.12207 -0.41504,0.23926 -0.2832,0.11231 -0.62988,0.11231 -0.46875,0 -0.63965,-0.1709 -0.1709,-0.1709 -0.21973,-0.47852 z" />
      <path
         id="path6024"
         style="font-style:normal;font-variant:normal;font-weight:normal;font-stretch:normal;font-size:10px;font-family:'Linux Libertine Mono';-inkscape-font-specification:'Linux Libertine Mono';text-align:center;text-anchor:middle"
         d="m 245.1391,109.68849 q 0,0.35645 0.0488,0.35156 0.0195,0 0.0537,-0.0342 0.59082,-0.62011 1.06933,-0.88867 0.47852,-0.27343 1.3086,-0.27343 0.29785,0 0.43457,0.16113 0.13672,0.16113 0.13672,0.35156 0,0.20996 -0.1416,0.38086 -0.13672,0.1709 -0.32715,0.1709 -0.20996,0 -0.45899,-0.27344 -0.0586,-0.0635 -0.20019,-0.13184 -0.1416,-0.0732 -0.23926,-0.0732 -0.5127,0 -1.44043,1.03516 -0.23926,0.26855 -0.24414,0.63965 l 0,1.38183 q 0,0.38086 0.0439,0.542 0.0488,0.15625 0.18067,0.22949 0.20019,0.0977 1.52832,0.13672 0.0391,0.0488 0.0391,0.19043 0,0.1416 -0.0391,0.18066 -0.85938,-0.0195 -2.06055,-0.0195 -1.23047,0 -2.07031,0.0195 -0.0488,-0.0391 -0.0488,-0.17578 0,-0.1416 0.0488,-0.19531 1.20117,-0.0586 1.31836,-0.13672 0.19043,-0.13184 0.19043,-0.77149 l 0,-2.42187 q 0,-0.43945 -0.15625,-0.53711 -0.0684,-0.0391 -0.46875,-0.0879 -0.39551,-0.0537 -0.5957,-0.0537 -0.0586,-0.1709 -0.0195,-0.27832 0.88868,-0.12207 1.90918,-0.29297 0.0879,0 0.12207,0.083 0.0781,0.16113 0.0781,0.79101 z" />
      <path
         id="path6026"
         style="font-style:normal;font-variant:normal;font-weight:normal;font-stretch:normal;font-size:10px;font-family:'Linux Libertine Mono';-inkscape-font-specification:'Linux Libertine Mono';text-align:center;text-anchor:middle"
         d="m 249.42621,109.34669 0.99121,0 q 0,-0.48828 -0.01,-0.87402 -0.005,-0.38574 -0.0146,-0.57617 -0.005,-0.19043 -0.005,-0.20996 0,-0.0439 0.0586,-0.0732 0.0635,-0.0293 0.18066,-0.0586 0.12207,-0.0342 0.18066,-0.0586 0.41993,-0.17578 0.44434,-0.17578 0.0781,0 0.0732,0.0879 -0.0391,0.40039 -0.0391,1.0498 l 0,0.88867 2.20215,0 q 0.0781,0 0.0781,0.0586 l 0,0.24902 q 0,0.13184 -0.23925,0.13184 l -2.04102,0 0,2.08984 q 0,0.80078 0.27832,1.09375 0.2832,0.28809 0.74219,0.28809 0.46875,0 1.53808,-0.4541 0.13184,0.01 0.18067,0.2832 -1.37207,0.76172 -2.07031,0.75684 -1.53809,0 -1.53809,-1.48926 l 0,-2.56836 -1.11816,0 q -0.0488,0 -0.0537,-0.0586 l 0,-0.18066 q 0,-0.2002 0.18067,-0.2002 z" />
      <path
         id="path6028"
         style="font-style:normal;font-variant:normal;font-weight:normal;font-stretch:normal;font-size:10px;font-family:'Linux Libertine Mono';-inkscape-font-specification:'Linux Libertine Mono';text-align:center;text-anchor:middle"
         d="m 257.68304,115.34767 q -0.1416,0.21973 -0.33203,0.37598 -0.18554,0.16113 -0.38574,0.22461 -0.20019,0.0684 -0.3418,0.0928 -0.1416,0.0244 -0.24902,0.0244 -0.21973,0 -0.36133,-0.10742 -0.1416,-0.10254 -0.1416,-0.26367 0,-0.13183 0.13184,-0.2832 0.13183,-0.14649 0.34179,-0.14649 0.0586,0 0.14649,0.0146 0.0928,0.0147 0.1709,0.0147 0.58105,0 0.75195,-0.28809 0.23926,-0.46875 0.41992,-0.91796 0.0879,-0.21973 -0.24902,-0.94239 l -1.46973,-3.13965 q -0.21972,-0.45898 -0.36133,-0.5664 -0.1416,-0.11231 -0.52246,-0.1416 -0.0488,-0.0488 -0.0488,-0.19043 0,-0.1416 0.0488,-0.18067 0.43946,0.0195 0.90332,0.0195 0.41992,0 1.22071,-0.0195 0.0488,0.0391 0.0488,0.18067 0,0.13672 -0.0488,0.19043 -0.39063,0.0391 -0.43946,0.1709 -0.0439,0.12695 0.12696,0.43945 l 1.21093,2.58789 q 0.11231,0.22949 0.16602,0.23437 0.0537,0.005 0.15137,-0.22461 l 1.29394,-2.79785 q 0.0586,-0.0977 0.0293,-0.17578 -0.0293,-0.0781 -0.0781,-0.12207 -0.0439,-0.0439 -0.15625,-0.0684 -0.10742,-0.0244 -0.20019,-0.0342 -0.0879,-0.01 -0.21485,-0.01 -0.0391,-0.0488 -0.0439,-0.19043 0,-0.1416 0.0439,-0.18067 0.60059,0.0195 0.98633,0.0195 0.38086,0 0.92285,-0.0195 0.0488,0.0391 0.0488,0.18067 0,0.13672 -0.0488,0.19043 -0.60058,0.0293 -0.88867,0.60058 -0.76172,1.49903 -2.14355,4.58985 -0.2002,0.46875 -0.43946,0.85937 z" />
    </g>
  </g>
</svg>
